<svg id="Layer_1" data-name="Layer 1" xmlns="http://www.w3.org/2000/svg" xmlns:xlink="http://www.w3.org/1999/xlink" viewBox="0 0 1103.17 1051.58"><defs><style>.cls-1{fill:none;}.cls-2{clip-path:url(#clip-path);}.cls-3{fill:url(#radial-gradient);}.cls-4{fill:#24356b;}.cls-5{fill:#f4f1ee;}.cls-6{fill:#e42918;}.cls-7{fill:#333a63;}</style><clipPath id="clip-path" transform="translate(51.6 0)"><path class="cls-1" d="M499.59,0C275.17,0,71.1,152.2,14.77,379.9c-66.37,268,97.14,539,365.14,605.33s539-97.13,605.36-365.14-97.11-539-365.16-605.32A500.65,500.65,0,0,0,499.62,0h0"/></clipPath><radialGradient id="radial-gradient" cx="-1487.83" cy="2488.25" r="2.53" gradientTransform="matrix(197.47, 0, 0, -197.47, 294350.5, 491849.98)" gradientUnits="userSpaceOnUse"><stop offset="0" stop-color="#fff"/><stop offset="0.78" stop-color="#fff"/><stop offset="0.82" stop-color="#f9f8f8"/><stop offset="0.88" stop-color="#e9e6e3"/><stop offset="0.96" stop-color="#cec8c2"/><stop offset="1" stop-color="#beb6ad"/></radialGradient></defs><g class="cls-2"><rect class="cls-3" width="1103.17" height="1051.58"/></g><path class="cls-4" d="M14.77,379.9C81.09,111.84,352.13-51.57,620.11,14.76s431.47,337.31,365.16,605.33S647.94,1051.58,379.91,985.23-51.59,647.92,14.77,379.9" transform="translate(51.6 0)"/><path class="cls-5" d="M854.63,147.54l-201,134V24.31q-16.47-5.29-33.5-9.55a497.57,497.57,0,0,0-275,9.92v256.9L144.87,148.11A496.72,496.72,0,0,0,36.44,312.88l53,35.35H23.75c-3.3,10.4-6.32,20.94-9,31.68A497.39,497.39,0,0,0,25.28,656.74h65.5l-52.46,35a502.39,502.39,0,0,0,110,163.66L345.1,724.24v251q17.08,5.55,34.81,10a497.45,497.45,0,0,0,273.7-9.48V724.24L851.14,855.9A496.8,496.8,0,0,0,961.46,692.43l-53.55-35.69h66.81q5.91-18,10.55-36.65a497.74,497.74,0,0,0-8.9-271.86H909.24l54.06-36A502.2,502.2,0,0,0,854.63,147.54" transform="translate(51.6 0)"/><path class="cls-6" d="M268.2,348.23,82.58,224.77a494.54,494.54,0,0,0-33.37,59l96.89,64.46ZM916.67,223.8a504.26,504.26,0,0,0-41.17-53.86L653.61,317.51v30.72h76ZM84,777.11a501.63,501.63,0,0,0,41.28,53.72L345.1,684.61V656.74H265ZM992.3,412.48H589.36V8.19a497.21,497.21,0,0,0-180,.09v404.2H7.87a497,497,0,0,0,.76,179.94H409.35V991.57a497.16,497.16,0,0,0,180,.38V592.42H991.28a497.46,497.46,0,0,0,1-179.94M733.89,656.74l181.92,121a494.57,494.57,0,0,0,33.69-58.8L856,656.74Z" transform="translate(51.6 0)"/><path class="cls-7" d="M653.61,76.35v32.42a57.45,57.45,0,0,0,3-17.44,36.42,36.42,0,0,0-3-15" transform="translate(51.6 0)"/></svg>