<svg id="Layer_1" data-name="Layer 1" xmlns="http://www.w3.org/2000/svg" xmlns:xlink="http://www.w3.org/1999/xlink" viewBox="0 0 1000.02 1000"><defs><style>.cls-1{fill:#e42918;}.cls-2{fill:#ffd300;}</style></defs><path class="cls-1" d="M14.6,379.9C80.91,111.84,352-51.57,619.93,14.76S1051.4,352.07,985.09,620.09,647.77,1051.58,379.73,985.24-51.77,647.92,14.6,379.9" transform="translate(0.17 0)"/><path class="cls-1" d="M29,332.08H970.72C916.22,179.67,788.87,56.55,619.93,14.76,368.29-47.52,114,92.78,29,332.08" transform="translate(0.17 0)"/><path class="cls-2" d="M989.05,602.77c.22-1.07.44-2.13.65-3.19q.57-2.79,1.11-5.57c.2-1.08.41-2.16.61-3.24q.54-2.88,1-5.77c.18-1,.35-1.93.51-2.91q.6-3.6,1.15-7.2c.07-.47.15-.95.22-1.43.43-2.88.84-5.77,1.22-8.65.1-.77.18-1.53.28-2.3.27-2.12.54-4.24.78-6.35l.33-3q.3-2.85.58-5.69l.3-3.15c.17-1.91.33-3.83.48-5.74.07-1,.15-1.95.22-2.93.16-2.19.3-4.4.43-6.6,0-.66.09-1.33.13-2q.24-4.34.4-8.66c0-.47,0-.94,0-1.41.08-2.39.15-4.78.19-7.16,0-.91,0-1.82,0-2.72,0-2,0-3.94.05-5.91,0-1,0-2,0-3,0-1.93,0-3.85-.05-5.78,0-.95,0-1.9,0-2.85q-.06-3.16-.17-6.33c0-.73,0-1.46-.07-2.19q-.33-8.58-.94-17.11c-.06-.75-.12-1.49-.17-2.24-.16-2.08-.33-4.17-.51-6.24-.09-.91-.18-1.81-.26-2.72q-.29-2.94-.6-5.87c-.09-.9-.18-1.79-.28-2.69-.24-2.08-.49-4.15-.75-6.23l-.27-2.18q-1.11-8.49-2.49-16.93l-.27-1.51c-.38-2.28-.77-4.54-1.19-6.81-.14-.77-.28-1.55-.43-2.32q-.57-3-1.18-6.08c-.16-.81-.32-1.61-.49-2.41-.43-2.07-.86-4.14-1.31-6.21-.16-.69-.3-1.38-.46-2.07-.57-2.54-1.15-5.07-1.76-7.59l-.12-.57c-.65-2.65-1.3-5.29-2-7.92h0q-5.68-22-13.29-43.28H29Q20.7,355.39,14.6,379.9A498.14,498.14,0,0,0,6,578.45c0,.28.09.57.13.85q.57,3.53,1.18,7c.1.49.18,1,.27,1.48q.59,3.29,1.21,6.55c.13.65.26,1.3.38,1.95q.61,3.09,1.26,6.17c.16.77.33,1.54.49,2.32.42,2,.84,3.89,1.29,5.83.2.91.42,1.81.63,2.72.43,1.82.85,3.63,1.29,5.45.34,1.37.7,2.74,1.05,4.11Q16,626,16.82,629c.54,2,1.08,4,1.65,6.05.25.89.51,1.77.76,2.66.55,1.9,1.1,3.81,1.68,5.71.26.89.54,1.78.81,2.67.59,1.89,1.17,3.78,1.77,5.67.28.87.57,1.74.85,2.61.62,1.9,1.24,3.8,1.89,5.69l.87,2.55q1,2.85,2,5.7c.16.44.3.89.46,1.33h0c.42,1.17.84,2.35,1.27,3.52H968.78c.42-1.17.81-2.35,1.24-3.52h.06c1.06-2.92,2-5.88,3-8.84.1-.29.2-.57.31-.86q1.93-5.79,3.76-11.65c.16-.55.34-1.08.51-1.63q1.68-5.48,3.23-11c.22-.78.46-1.54.67-2.32q1.83-6.6,3.48-13.27,1.06-4.32,2-8.64c.22-.92.41-1.84.62-2.76.43-2,.87-4,1.29-5.92" transform="translate(0.17 0)"/><image width="225" height="225" transform="translate(213.13 387.51)" xlink:href="flags-icons/Escudo_de_Espa%C3%B1a_(mazonado).svg.png"/></svg>